<svg width="40" height="40" viewBox="0 0 40 40" fill="none" xmlns="http://www.w3.org/2000/svg">
<g clip-path="url(#clip0_306_187)">
<path d="M19.9554 32.4794C17.4306 32.4794 15.2573 31.968 13.4355 30.9453C11.6245 29.9119 10.2289 28.4524 9.24876 26.5668C8.26864 24.6705 7.77859 22.4279 7.77859 19.8391C7.77859 17.3143 8.26864 15.0984 9.24876 13.1914C10.2289 11.2844 11.6085 9.79829 13.3876 8.73295C15.1774 7.66761 17.2761 7.13494 19.6838 7.13494C21.3031 7.13494 22.8105 7.39595 24.2061 7.91797C25.6124 8.42933 26.8375 9.2017 27.8816 10.2351C28.9363 11.2685 29.7566 12.5682 30.3425 14.1342C30.9284 15.6896 31.2214 17.5114 31.2214 19.5994V21.4691H10.4952V17.2504H24.8134C24.8134 16.2702 24.6003 15.402 24.1742 14.6456C23.748 13.8892 23.1568 13.2979 22.4004 12.8718C21.6547 12.435 20.7864 12.2166 19.7956 12.2166C18.7623 12.2166 17.8461 12.4563 17.0471 12.9357C16.2587 13.4045 15.6408 14.0384 15.1934 14.8374C14.7459 15.6257 14.5169 16.5046 14.5062 17.4741V21.4851C14.5062 22.6996 14.7299 23.7489 15.1774 24.6332C15.6355 25.5174 16.28 26.1992 17.111 26.6786C17.9419 27.158 18.9274 27.3977 20.0673 27.3977C20.8237 27.3977 21.5162 27.2912 22.1447 27.0781C22.7733 26.8651 23.3113 26.5455 23.7587 26.1193C24.2061 25.6932 24.5471 25.1712 24.7814 24.5533L31.0776 24.9688C30.758 26.4815 30.1028 27.8026 29.112 28.9318C28.1319 30.0504 26.8642 30.924 25.3088 31.5526C23.764 32.1705 21.9796 32.4794 19.9554 32.4794Z" fill="#1E252C"/>
</g>
<rect x="2" y="2" width="36" height="36" rx="18" stroke="#1E252C" stroke-width="4" stroke-linejoin="round"/>
<defs>
<clipPath id="clip0_306_187">
<rect width="40" height="40" rx="20" fill="white"/>
</clipPath>
</defs>
</svg>
